<svg version="1.1" xmlns="http://www.w3.org/2000/svg" xmlns:xlink="http://www.w3.org/1999/xlink" width="25.91219" height="21.89151" viewBox="0,0,25.91219,21.89151"><g transform="translate(-226.14566,-168.04849)"><g data-paper-data="{&quot;isPaintingLayer&quot;:true}" fill="#000000" fill-rule="nonzero" stroke="none" stroke-width="0.5" stroke-linecap="butt" stroke-linejoin="miter" stroke-miterlimit="10" stroke-dasharray="" stroke-dashoffset="0" style="mix-blend-mode: normal"><path d="M251.5,188.9c-1.5,2 -3.5,0.5 -3.5,0.5l-0.93081,-0.70515c-2.31535,-1.99272 -4.62161,-3.98101 -6.91203,-5.98332c-3.47291,1.47697 -6.86719,3.07672 -10.18534,5.04078c0,0 -2.15232,1.27182 -3.42414,-0.88049c-1.27182,-2.15232 0.88049,-3.42414 0.88049,-3.42414c2.81572,-1.66115 5.6803,-3.07952 8.59811,-4.38323c-2.44106,-2.17974 -4.85907,-4.38861 -7.24565,-6.64957c0,0 -1.81488,-1.71936 -0.09552,-3.53424c1.71936,-1.81488 3.53424,-0.09552 3.53424,-0.09552c2.92453,2.77061 5.89676,5.4617 8.90093,8.1169c1.34106,-0.54628 2.6934,-1.08429 4.05743,-1.62568l1.93171,-0.64805c0,0 2.37171,-0.79057 3.16228,1.58114c0.79057,2.37171 -1.58114,3.16228 -1.58114,3.16228l-1.66829,0.55195c-0.56366,0.22372 -1.12534,0.4466 -1.68502,0.66958c1.65801,1.43957 3.32339,2.87449 4.99355,4.31191l0.66919,0.49485c0,0 2,1.5 0.5,3.5z"/></g></g></svg>