<svg version="1.1" xmlns="http://www.w3.org/2000/svg" xmlns:xlink="http://www.w3.org/1999/xlink" width="481.5" height="6" viewBox="0,0,481.5,6"><g transform="translate(1.25,-174.5)"><g data-paper-data="{&quot;isPaintingLayer&quot;:true}" fill="#ffffff" fill-rule="nonzero" stroke="none" stroke-width="0" stroke-linecap="butt" stroke-linejoin="miter" stroke-miterlimit="10" stroke-dasharray="" stroke-dashoffset="0" style="mix-blend-mode: normal"><path d="M-1.25,180.5v-2.5h481.5v2.5z"/><g><path d="M4,177.5v-3h7.75v3z"/><path d="M19.75,177.5v-3h7.75v3z"/><g><path d="M36,177.5v-3h7.75v3z"/><path d="M51.75,177.5v-3h7.75v3z"/></g><g><path d="M68,177.5v-3h7.75v3z"/><path d="M83.75,177.5v-3h7.75v3z"/><g><path d="M100,177.5v-3h7.75v3z"/><path d="M115.75,177.5v-3h7.75v3z"/></g></g><g><path d="M132,177.5v-3h7.75v3z"/><path d="M147.75,177.5v-3h7.75v3z"/><g><path d="M164,177.5v-3h7.75v3z"/><path d="M179.75,177.5v-3h7.75v3z"/></g><g><path d="M196,177.5v-3h7.75v3z"/><path d="M211.75,177.5v-3h7.75v3z"/><g><path d="M228,177.5v-3h7.75v3z"/><path d="M243.75,177.5v-3h7.75v3z"/></g></g></g><path d="M260,177.5v-3h7.75v3z"/><path d="M275.75,177.5v-3h7.75v3z"/><g><path d="M292,177.5v-3h7.75v3z"/><path d="M307.75,177.5v-3h7.75v3z"/></g><g><path d="M324,177.5v-3h7.75v3z"/><path d="M339.75,177.5v-3h7.75v3z"/><g><path d="M356,177.5v-3h7.75v3z"/><path d="M371.75,177.5v-3h7.75v3z"/></g></g><path d="M388,177.5v-3h7.75v3z"/><path d="M403.75,177.5v-3h7.75v3z"/><path d="M420,177.5v-3h7.75v3z"/><path d="M435.75,177.5v-3h7.75v3z"/><path d="M452,177.5v-3h7.75v3z"/><path d="M467.75,177.5v-3h7.75v3z"/></g></g></g></svg>