<svg version="1.1" xmlns="http://www.w3.org/2000/svg" xmlns:xlink="http://www.w3.org/1999/xlink" width="481.5" height="6" viewBox="0,0,481.5,6"><g transform="translate(1.25,-174.5)"><g data-paper-data="{&quot;isPaintingLayer&quot;:true}" fill="#ffffff" fill-rule="nonzero" stroke="none" stroke-width="0" stroke-linecap="butt" stroke-linejoin="miter" stroke-miterlimit="10" stroke-dasharray="" stroke-dashoffset="0" style="mix-blend-mode: normal"><path d="M-1.25,180.5v-2.5h481.5v2.5z"/><g><path d="M8.5,177.5v-3h7.75v3z"/><path d="M24.25,177.5v-3h7.75v3z"/><g><path d="M40.5,177.5v-3h7.75v3z"/><path d="M56.25,177.5v-3h7.75v3z"/></g><g><path d="M72.5,177.5v-3h7.75v3z"/><path d="M88.25,177.5v-3h7.75v3z"/><g><path d="M104.5,177.5v-3h7.75v3z"/><path d="M120.25,177.5v-3h7.75v3z"/></g></g><g><path d="M136.5,177.5v-3h7.75v3z"/><path d="M152.25,177.5v-3h7.75v3z"/><g><path d="M168.5,177.5v-3h7.75v3z"/><path d="M184.25,177.5v-3h7.75v3z"/></g><g><path d="M200.5,177.5v-3h7.75v3z"/><path d="M216.25,177.5v-3h7.75v3z"/><g><path d="M232.5,177.5v-3h7.75v3z"/><path d="M248.25,177.5v-3h7.75v3z"/></g></g></g><path d="M264.5,177.5v-3h7.75v3z"/><path d="M280.25,177.5v-3h7.75v3z"/><g><path d="M296.5,177.5v-3h7.75v3z"/><path d="M312.25,177.5v-3h7.75v3z"/></g><g><path d="M328.5,177.5v-3h7.75v3z"/><path d="M344.25,177.5v-3h7.75v3z"/><g><path d="M360.5,177.5v-3h7.75v3z"/><path d="M376.25,177.5v-3h7.75v3z"/></g></g><path d="M392.5,177.5v-3h7.75v3z"/><path d="M408.25,177.5v-3h7.75v3z"/><path d="M424.5,177.5v-3h7.75v3z"/><path d="M440.25,177.5v-3h7.75v3z"/><path d="M456.5,177.5v-3h7.75v3z"/><path d="M472.25,177.5v-3h7.75v3z"/></g></g></g></svg>