<svg version="1.1" xmlns="http://www.w3.org/2000/svg" xmlns:xlink="http://www.w3.org/1999/xlink" width="481.5" height="6" viewBox="0,0,481.5,6"><g transform="translate(1.25,-174.5)"><g data-paper-data="{&quot;isPaintingLayer&quot;:true}" fill="#ffffff" fill-rule="nonzero" stroke="none" stroke-width="0" stroke-linecap="butt" stroke-linejoin="miter" stroke-miterlimit="10" stroke-dasharray="" stroke-dashoffset="0" style="mix-blend-mode: normal"><path d="M-1.25,180.5v-2.5h481.5v2.5z"/><g><path d="M0,177.5v-3h7.75v3z"/><path d="M15.75,177.5v-3h7.75v3z"/><g><path d="M32,177.5v-3h7.75v3z"/><path d="M47.75,177.5v-3h7.75v3z"/></g><g><path d="M64,177.5v-3h7.75v3z"/><path d="M79.75,177.5v-3h7.75v3z"/><g><path d="M96,177.5v-3h7.75v3z"/><path d="M111.75,177.5v-3h7.75v3z"/></g></g><g><path d="M128,177.5v-3h7.75v3z"/><path d="M143.75,177.5v-3h7.75v3z"/><g><path d="M160,177.5v-3h7.75v3z"/><path d="M175.75,177.5v-3h7.75v3z"/></g><g><path d="M192,177.5v-3h7.75v3z"/><path d="M207.75,177.5v-3h7.75v3z"/><g><path d="M224,177.5v-3h7.75v3z"/><path d="M239.75,177.5v-3h7.75v3z"/></g></g></g><path d="M256,177.5v-3h7.75v3z"/><path d="M271.75,177.5v-3h7.75v3z"/><g><path d="M288,177.5v-3h7.75v3z"/><path d="M303.75,177.5v-3h7.75v3z"/></g><g><path d="M320,177.5v-3h7.75v3z"/><path d="M335.75,177.5v-3h7.75v3z"/><g><path d="M352,177.5v-3h7.75v3z"/><path d="M367.75,177.5v-3h7.75v3z"/></g></g><path d="M384,177.5v-3h7.75v3z"/><path d="M399.75,177.5v-3h7.75v3z"/><path d="M416,177.5v-3h7.75v3z"/><path d="M431.75,177.5v-3h7.75v3z"/><path d="M448,177.5v-3h7.75v3z"/><path d="M463.75,177.5v-3h7.75v3z"/></g></g></g></svg>