<svg version="1.1" xmlns="http://www.w3.org/2000/svg" xmlns:xlink="http://www.w3.org/1999/xlink" width="484.25" height="6" viewBox="0,0,484.25,6"><g transform="translate(4,-174.5)"><g data-paper-data="{&quot;isPaintingLayer&quot;:true}" fill="#ffffff" fill-rule="nonzero" stroke="none" stroke-width="0" stroke-linecap="butt" stroke-linejoin="miter" stroke-miterlimit="10" stroke-dasharray="" stroke-dashoffset="0" style="mix-blend-mode: normal"><path d="M-1.25,180.5v-2.5h481.5v2.5z"/><g><path d="M-4,177.5v-3h7.75v3z"/><path d="M11.75,177.5v-3h7.75v3z"/><g><path d="M28,177.5v-3h7.75v3z"/><path d="M43.75,177.5v-3h7.75v3z"/></g><g><path d="M60,177.5v-3h7.75v3z"/><path d="M75.75,177.5v-3h7.75v3z"/><g><path d="M92,177.5v-3h7.75v3z"/><path d="M107.75,177.5v-3h7.75v3z"/></g></g><g><path d="M124,177.5v-3h7.75v3z"/><path d="M139.75,177.5v-3h7.75v3z"/><g><path d="M156,177.5v-3h7.75v3z"/><path d="M171.75,177.5v-3h7.75v3z"/></g><g><path d="M188,177.5v-3h7.75v3z"/><path d="M203.75,177.5v-3h7.75v3z"/><g><path d="M220,177.5v-3h7.75v3z"/><path d="M235.75,177.5v-3h7.75v3z"/></g></g></g><path d="M252,177.5v-3h7.75v3z"/><path d="M267.75,177.5v-3h7.75v3z"/><g><path d="M284,177.5v-3h7.75v3z"/><path d="M299.75,177.5v-3h7.75v3z"/></g><g><path d="M316,177.5v-3h7.75v3z"/><path d="M331.75,177.5v-3h7.75v3z"/><g><path d="M348,177.5v-3h7.75v3z"/><path d="M363.75,177.5v-3h7.75v3z"/></g></g><path d="M380,177.5v-3h7.75v3z"/><path d="M395.75,177.5v-3h7.75v3z"/><path d="M412,177.5v-3h7.75v3z"/><path d="M427.75,177.5v-3h7.75v3z"/><path d="M444,177.5v-3h7.75v3z"/><path d="M459.75,177.5v-3h7.75v3z"/></g></g></g></svg>