<svg version="1.1" xmlns="http://www.w3.org/2000/svg" xmlns:xlink="http://www.w3.org/1999/xlink" width="84.01447" height="34.27801" viewBox="0,0,84.01447,34.27801"><g transform="translate(-202.5625,-158.25)"><g data-paper-data="{&quot;isPaintingLayer&quot;:true}" fill="#9966ff" fill-rule="nonzero" stroke="none" stroke-width="0.5" stroke-linecap="butt" stroke-linejoin="miter" stroke-miterlimit="10" stroke-dasharray="" stroke-dashoffset="0" style="mix-blend-mode: normal"><path d="M223.0625,168l0.00001,-0.25607c0.00389,-0.76554 0.03524,-1.52955 0.07451,-2.29296c-0.23145,-0.07175 -0.46403,-0.22862 -0.63969,-0.53837c-2.07579,-0.05754 -4.14647,-0.12942 -6.21433,-0.23218l-0.09594,0.72739c-0.17171,6.86838 -1.46141,13.57454 -2.5716,20.34492c0.47847,0.00129 0.95984,-0.00272 1.44703,-0.00272h0.125c0,0 1.25,0 1.25,1.25c0,1.25 -1.25,1.25 -1.25,1.25h-0.125c-1.80955,0 -3.5406,0.02649 -5.3305,-0.26701c0,0 -1.23299,-0.2055 -1.02749,-1.43849c0.2055,-1.23299 1.43849,-1.02749 1.43849,-1.02749c0.32051,0.05441 0.63916,0.09647 0.95682,0.12893c1.10353,-6.75677 2.41674,-13.44905 2.58803,-20.30061l0.0961,-0.80529c-2.90879,-0.18352 -5.81381,-0.44149 -8.72145,-0.8201c0,0.53314 0,1.01992 0,1.40506c0,0 0,1.25 -1.25,1.25c-1.25,0 -1.25,-1.25 -1.25,-1.25c0,-1.41667 0,-2.83333 0,-4.25v-1.375c0,0 0,-1.25 1.25,-1.25c1.25,0 1.25,1.25 1.25,1.25c0,0.45476 0,1.0512 0,1.69837c6.06808,0.8099 12.12374,1.07558 18.22628,1.23482c0.01494,-0.43579 0.02405,-0.8718 0.02372,-1.30819c0,0 0,-1.25 1.25,-1.25c1.25,0 1.25,1.25 1.25,1.25c-0.00016,0.22901 -0.00286,0.45789 -0.00757,0.68668c0.28622,-0.15747 0.56812,-0.32239 0.84446,-0.4963l1.04571,-0.46432c0,0 1.14893,-0.4924 1.64133,0.65653c0.4924,1.14893 -0.65653,1.64133 -0.65653,1.64133l-0.42573,0.17269c0.03704,0.12335 0.05833,0.26521 0.05833,0.42838c0,0.77753 -0.48364,1.07142 -0.84925,1.1825c-0.17048,1.20885 -0.51453,2.32917 -0.66011,3.59523c-0.20285,1.76403 0.06129,3.72434 0.00893,5.50513c-0.10601,3.60582 -1.98104,13.43049 4.10022,13.21739c1.12849,-0.03954 2.24608,-0.38884 3.28254,-0.83698c3.78105,-2.73987 3.36767,-6.40129 3.36767,-10.66327c0,-3.875 0,-7.75 0,-11.625v-0.625c0,0 0,-0.01322 0.00136,-0.03694c-0.58727,-0.50114 -1.13189,-1.06339 -1.62636,-1.71306c0,0 -0.75,-1 0.25,-1.75c1,-0.75 1.75,0.25 1.75,0.25c0.81015,1.10096 1.84392,1.88069 2.98509,2.54607c0.98006,-0.74005 2.25158,-1.07945 3.45071,-1.50594c2.48143,-0.40689 4.55756,0.40422 6.07227,1.85958c1.55003,-1.32083 3.15111,-2.53799 4.76104,-3.78877l1.16251,-0.77601c0,0 1.04006,-0.69338 1.73344,0.34669c0.69338,1.04006 -0.34669,1.73344 -0.34669,1.73344l-1.08749,0.72399c-0.25262,0.19671 -0.50507,0.39247 -0.75717,0.58787c0.50403,0.23094 1.00792,0.52677 1.54051,0.78391c1.84256,2.07332 2.64976,4.59718 3.95783,7.01504c2.1018,3.885 3.68169,8.27865 5.0001,12.63802c0.06917,-0.53061 0.132,-1.06263 0.15392,-1.59084c0.2554,-6.15329 -0.05941,-12.75007 1.01908,-18.79666l-0.02016,-0.02639c0,0 0,-1.25 1.25,-1.25c1.25,0 1.25,1.25 1.25,1.25l-0.02016,0.47361c-0.04074,0.21915 -0.07894,0.43917 -0.11477,0.65999c1.99724,-2.43332 5.87963,-3.58755 8.75522,-2.28129c1.77889,0.80807 3.11766,2.11565 4.35341,3.53337c0.17662,-0.35613 0.35465,-0.71244 0.53328,-1.0697l0.68304,-1.10348c0,0 0.6625,-1.06 1.7225,-0.3975c1.06,0.6625 0.3975,1.7225 0.3975,1.7225l-0.56696,0.89652c-0.34135,0.68269 -0.68095,1.36153 -1.01233,2.04251c0.13146,0.17667 0.67473,1.01016 -0.17328,1.72771c-0.28113,0.23788 -0.54953,0.32285 -0.78828,0.32437c-0.30002,0.67218 -0.58615,1.35204 -0.85247,2.04512c0,0 -0.44872,1.16668 -1.61541,0.71796c-1.16668,-0.44872 -0.71796,-1.61541 -0.71796,-1.61541c0.37142,-0.96479 0.77874,-1.90539 1.20794,-2.83525c-1.18901,-1.44505 -2.42604,-2.86287 -4.16154,-3.69333c-2.44038,-1.16776 -7.20303,0.86793 -6.52306,4.01397c0.5612,2.59656 2.68307,4.7355 4.48626,6.54031c3.53463,2.9415 7.72851,5.50802 8.27512,10.54134c0.6779,6.24229 -6.01334,7.3401 -10.664,5.68368c-1.23187,-0.43875 -2.18595,-1.19412 -3.0192,-2.08554l-0.24147,0.19862c-0.67235,0.44572 -1.25139,0.90194 -1.77279,1.39933c-0.12047,0.3208 -0.36905,0.57894 -0.68341,0.71211c-0.46413,0.52793 -0.88898,1.10833 -1.30761,1.76959c0,0 -0.67109,1.05458 -1.72567,0.38348c-1.05458,-0.67109 -0.38348,-1.72567 -0.38348,-1.72567c0.46932,-0.7341 0.95163,-1.3905 1.47406,-1.9926l-0.23034,-0.69102l0.01148,-0.00383l-0.022,-0.02923c-0.10481,-0.3843 -0.2109,-0.77049 -0.31848,-1.15816c-0.05288,-0.03435 -0.10638,-0.07379 -0.16038,-0.11879c-0.67381,-0.56151 -0.48082,-1.20182 -0.30571,-1.53388c-1.38202,-4.81451 -3.03689,-9.7645 -5.36612,-14.07726c-1.10581,-2.0475 -1.77741,-4.45284 -3.29217,-6.23496c-0.06256,-0.03363 -1.39268,-0.88394 -1.70857,-0.62399c-0.13215,0.10875 0.3477,5.09721 0.3478,5.50982c0.00136,5.62994 -0.43038,11.21332 -0.57698,16.81317c0.41893,0.59292 0.17872,1.11918 -0.03039,1.40624c-0.01133,0.67651 -0.01763,1.35334 -0.01763,2.03059c0,0 0,1.25 -1.25,1.25c-1.05439,0 -1.21939,-0.88939 -1.24521,-1.16775c-0.87672,0.66429 -1.77217,1.28486 -2.73667,1.86461c0,0 -1.07187,0.64312 -1.71499,-0.42875c-0.64312,-1.07187 0.42875,-1.71499 0.42875,-1.71499c0.49514,-0.2965 0.96921,-0.60467 1.43109,-0.92502c-1.47824,-1.66834 -2.59073,-3.45423 -3.85522,-5.35237c-0.76746,-1.38634 -2.30325,-2.73644 -3.26068,-4.13244c-0.13137,2.75054 -0.28072,5.49801 -0.29582,8.26153c0.36499,0.0738 0.99875,0.33009 0.99875,1.22016c0,1.25 -1.25,1.25 -1.25,1.25l-0.37015,-0.02427c-0.78619,-0.15824 -1.58116,-0.27813 -2.37923,-0.35693c0,0 -1.2438,-0.12438 -1.11942,-1.36818c0.12438,-1.2438 1.36818,-1.11942 1.36818,-1.11942c0.08504,0.0086 0.17005,0.01761 0.25502,0.02701c0.01079,-1.07297 0.04062,-2.14355 0.08064,-3.21289c-0.76542,1.8205 -1.9089,3.41395 -3.59237,4.64141c-1.41576,0.60292 -2.92947,1.11367 -4.46746,1.16302c-8.37192,0.26863 -6.80812,-10.40105 -6.64978,-15.78261c0.04502,-1.52994 -0.11847,-3.1614 -0.0643,-4.71825c-1.18614,-0.04183 -1.18614,-1.24889 -1.18614,-1.24889zM269.90738,180.31043c0,0 1.06457,-0.65512 1.71969,0.40945c0.65512,1.06457 -0.40945,1.71969 -0.40945,1.71969c-0.47874,0.29262 -0.91742,0.59344 -1.3327,0.90699l0.30258,0.40344c1.08389,1.44519 2.09193,3.19941 3.92095,3.82301c2.82524,0.96327 7.87018,1.19687 7.336,-3.06632c-0.53428,-4.26398 -4.47601,-6.45639 -7.47488,-8.95866c-1.65396,-1.65267 -3.51377,-3.56839 -4.5557,-5.78308c-0.06666,3.6396 0.08088,7.35906 -0.15616,10.96525c0.21029,-0.14178 0.42644,-0.28158 0.64966,-0.41977zM268.61912,185.95994l0.06008,-0.05093c-0.02933,-0.03926 -0.05864,-0.07854 -0.08793,-0.11783c-0.01572,0.0734 -0.03175,0.1467 -0.04809,0.21991c0.02521,-0.01707 0.05052,-0.03411 0.07593,-0.05114zM251.27095,186.90755l0.20698,-0.17751c0.09957,-4.1063 0.35846,-8.20264 0.49588,-12.3144c-0.55526,0.88242 -1.30661,1.6644 -2.27119,2.28302c-1.391,0.89211 -3.06485,0.92412 -4.64012,0.92634c-0.2913,0.00041 -0.69104,0.023 -1.07957,0.01533c0.06654,0.07068 0.12527,0.13682 0.17253,0.19376c1.1092,1.33639 2.12936,2.74939 2.97429,4.26516c1.22301,1.83315 2.27083,3.54737 3.72471,5.14614c0.13865,-0.11136 0.27739,-0.22397 0.41649,-0.33784zM244.3481,165.71424c-0.46424,1.1606 -1.62483,0.69636 -1.62483,0.69636l-0.92763,-0.37188c-0.35484,1.94909 0.14187,4.63713 0.14187,6.46129c0,0.86181 -0.01382,1.72181 -0.03685,2.58057c0.44917,0.00991 0.93278,0.0809 1.3388,0.04551c2.32114,-0.20233 4.61132,0.47356 6.35717,-1.54453c3.03214,-3.50497 0.23195,-10.69467 -4.59492,-9.87168c-0.29914,0.10737 -0.79206,0.23052 -1.29666,0.40387c0.22243,0.10898 1.04659,0.59166 0.64305,1.6005z"/></g></g></svg>