<svg version="1.1" xmlns="http://www.w3.org/2000/svg" xmlns:xlink="http://www.w3.org/1999/xlink" width="481.5" height="6" viewBox="0,0,481.5,6"><g transform="translate(1.25,-174.5)"><g data-paper-data="{&quot;isPaintingLayer&quot;:true}" fill="#ffffff" fill-rule="nonzero" stroke="none" stroke-width="0" stroke-linecap="butt" stroke-linejoin="miter" stroke-miterlimit="10" stroke-dasharray="" stroke-dashoffset="0" style="mix-blend-mode: normal"><path d="M-1.25,180.5v-2.5h481.5v2.5z"/><g><path d="M2,177.5v-3h7.75v3z"/><path d="M17.75,177.5v-3h7.75v3z"/><g><path d="M34,177.5v-3h7.75v3z"/><path d="M49.75,177.5v-3h7.75v3z"/></g><g><path d="M66,177.5v-3h7.75v3z"/><path d="M81.75,177.5v-3h7.75v3z"/><g><path d="M98,177.5v-3h7.75v3z"/><path d="M113.75,177.5v-3h7.75v3z"/></g></g><g><path d="M130,177.5v-3h7.75v3z"/><path d="M145.75,177.5v-3h7.75v3z"/><g><path d="M162,177.5v-3h7.75v3z"/><path d="M177.75,177.5v-3h7.75v3z"/></g><g><path d="M194,177.5v-3h7.75v3z"/><path d="M209.75,177.5v-3h7.75v3z"/><g><path d="M226,177.5v-3h7.75v3z"/><path d="M241.75,177.5v-3h7.75v3z"/></g></g></g><path d="M258,177.5v-3h7.75v3z"/><path d="M273.75,177.5v-3h7.75v3z"/><g><path d="M290,177.5v-3h7.75v3z"/><path d="M305.75,177.5v-3h7.75v3z"/></g><g><path d="M322,177.5v-3h7.75v3z"/><path d="M337.75,177.5v-3h7.75v3z"/><g><path d="M354,177.5v-3h7.75v3z"/><path d="M369.75,177.5v-3h7.75v3z"/></g></g><path d="M386,177.5v-3h7.75v3z"/><path d="M401.75,177.5v-3h7.75v3z"/><path d="M418,177.5v-3h7.75v3z"/><path d="M433.75,177.5v-3h7.75v3z"/><path d="M450,177.5v-3h7.75v3z"/><path d="M465.75,177.5v-3h7.75v3z"/></g></g></g></svg>