<svg version="1.1" xmlns="http://www.w3.org/2000/svg" xmlns:xlink="http://www.w3.org/1999/xlink" width="36.54637" height="33.5409" viewBox="0,0,36.54637,33.5409"><g transform="translate(-226.48048,-166.05443)"><g data-paper-data="{&quot;isPaintingLayer&quot;:true}" fill="#000000" fill-rule="nonzero" stroke="none" stroke-width="0.5" stroke-linecap="butt" stroke-linejoin="miter" stroke-miterlimit="10" stroke-dasharray="" stroke-dashoffset="0" style="mix-blend-mode: normal"><path d="M262.83271,198.95803c-0.6247,1.08271 -1.7074,0.45801 -1.7074,0.45801l-1.51629,-0.87487c-6.35504,-3.66672 -13.19998,-8.04506 -18.6946,-12.94483c-0.93188,-0.831 -1.8265,-1.70901 -2.69085,-2.62296c-0.41239,0.32011 -0.82417,0.6418 -1.23548,0.96497c-2.34902,1.84559 -4.91213,3.49496 -7.02086,5.61221c0,0 -0.88388,0.88388 -1.76777,0c-0.88388,-0.88388 0,-1.76777 0,-1.76777c2.46076,-2.45188 5.16638,-4.8047 8.02564,-7.04102c-3.42164,-4.01799 -6.41325,-8.50787 -9.481,-12.66637c0,0 -0.74206,-1.00591 0.26384,-1.74797c1.00591,-0.74206 1.74797,0.26384 1.74797,0.26384c3.05454,4.14059 6.02945,8.64098 9.45338,12.63506c6.27737,-4.68348 13.16651,-8.81191 19.7658,-12.21277l1.53563,-0.79137c0,0 1.11113,-0.57261 1.68374,0.53853c0.57261,1.11113 -0.53853,1.68374 -0.53853,1.68374l-1.53563,0.79137c-6.74041,3.47358 -12.90815,7.65651 -18.90519,12.20836c0.76393,0.79698 1.55243,1.56397 2.37047,2.2928c5.36922,4.78364 12.06317,9.05593 18.27281,12.63876l1.51629,0.87487c0,0 1.08271,0.6247 0.45801,1.7074z"/></g></g></svg>