<svg version="1.1" xmlns="http://www.w3.org/2000/svg" xmlns:xlink="http://www.w3.org/1999/xlink" width="481.5" height="6" viewBox="0,0,481.5,6"><g transform="translate(1.25,-174.5)"><g data-paper-data="{&quot;isPaintingLayer&quot;:true}" fill="#ffffff" fill-rule="nonzero" stroke="none" stroke-width="0" stroke-linecap="butt" stroke-linejoin="miter" stroke-miterlimit="10" stroke-dasharray="" stroke-dashoffset="0" style="mix-blend-mode: normal"><path d="M-1.25,180.5v-2.5h481.5v2.5z"/><g><path d="M6,177.5v-3h7.75v3z"/><path d="M21.75,177.5v-3h7.75v3z"/><g><path d="M38,177.5v-3h7.75v3z"/><path d="M53.75,177.5v-3h7.75v3z"/></g><g><path d="M70,177.5v-3h7.75v3z"/><path d="M85.75,177.5v-3h7.75v3z"/><g><path d="M102,177.5v-3h7.75v3z"/><path d="M117.75,177.5v-3h7.75v3z"/></g></g><g><path d="M134,177.5v-3h7.75v3z"/><path d="M149.75,177.5v-3h7.75v3z"/><g><path d="M166,177.5v-3h7.75v3z"/><path d="M181.75,177.5v-3h7.75v3z"/></g><g><path d="M198,177.5v-3h7.75v3z"/><path d="M213.75,177.5v-3h7.75v3z"/><g><path d="M230,177.5v-3h7.75v3z"/><path d="M245.75,177.5v-3h7.75v3z"/></g></g></g><path d="M262,177.5v-3h7.75v3z"/><path d="M277.75,177.5v-3h7.75v3z"/><g><path d="M294,177.5v-3h7.75v3z"/><path d="M309.75,177.5v-3h7.75v3z"/></g><g><path d="M326,177.5v-3h7.75v3z"/><path d="M341.75,177.5v-3h7.75v3z"/><g><path d="M358,177.5v-3h7.75v3z"/><path d="M373.75,177.5v-3h7.75v3z"/></g></g><path d="M390,177.5v-3h7.75v3z"/><path d="M405.75,177.5v-3h7.75v3z"/><path d="M422,177.5v-3h7.75v3z"/><path d="M437.75,177.5v-3h7.75v3z"/><path d="M454,177.5v-3h7.75v3z"/><path d="M469.75,177.5v-3h7.75v3z"/></g></g></g></svg>